<?xml version="1.0" encoding="UTF-8" standalone="no" ?>
<!DOCTYPE svg PUBLIC "-//W3C//DTD SVG 1.1//EN" "http://www.w3.org/Graphics/SVG/1.1/DTD/svg11.dtd">
<svg xmlns="http://www.w3.org/2000/svg" xmlns:xlink="http://www.w3.org/1999/xlink" version="1.1" width="200" height="200" viewBox="0 0 640 640" xml:space="preserve">
<desc>Created with Fabric.js 5.3.0</desc>
<defs>
</defs>
<g transform="matrix(0 -0.8913007763 0.957001305 0 320 320)" id="1KIxXTao-apETZPaZjlTJ"  >
<path style="stroke: rgb(18,66,101); stroke-width: 25; stroke-dasharray: none; stroke-linecap: butt; stroke-dashoffset: 0; stroke-linejoin: miter; stroke-miterlimit: 4; fill: rgb(255,255,255); fill-rule: nonzero; opacity: 1;"  transform=" translate(0, 0)" d="M 141.89659 -281.35593 C 154.54914 -281.35593 166.17877000000001 -274.88223 172.17087 -264.50359 L 315.90028 -15.556559999999962 L 315.90028 -15.556559999999962 C 321.50833 -5.843119999999962 321.50833 5.843130000000038 315.90028 15.55657000000004 L 172.17087 264.50360000000006 L 172.17087 264.50360000000006 C 166.17877000000001 274.8822400000001 154.54913000000002 281.3559400000001 141.89659 281.3559400000001 L -141.89659 281.3559400000001 L -141.89659 281.3559400000001 C -154.54914 281.3559400000001 -166.17877000000001 274.8822400000001 -172.17087 264.50360000000006 L -315.90028 15.55657000000005 L -315.90028 15.55657000000005 C -321.50833 5.84313000000005 -321.50833 -5.843119999999949 -315.90028 -15.556559999999951 L -172.17087 -264.50359 L -172.17087 -264.50359 C -166.17877000000001 -274.88223 -154.54913000000002 -281.35593 -141.89659 -281.35593 z" stroke-linecap="round" />
</g>
<g transform="matrix(1 0 0 1 320 314.263727728)" id="EPHveQwB2SiMJkGL2OKTS"  >
<g style=""   >
		<g transform="matrix(1.2981246217 0 0 0.8241113516 -103.4550904598 -63.0143601107)" id="Op0tVqIGpELO1vsfg3x46"  >
<path style="stroke: rgb(0,0,0); stroke-width: 12; stroke-dasharray: none; stroke-linecap: butt; stroke-dashoffset: 0; stroke-linejoin: miter; stroke-miterlimit: 4; fill: rgb(143,140,148); fill-rule: nonzero; opacity: 1;"  transform=" translate(0, 0)" d="M -59.74576 -30.51322 C -59.74576 -46.6579 -51.436969999999995 -59.745760000000004 -41.18755 -59.745760000000004 L 41.187560000000005 -59.745760000000004 L 41.187560000000005 -59.745760000000004 C 51.43697 -59.745760000000004 59.74577000000001 -46.65791 59.74577000000001 -30.513220000000004 L 59.74577000000001 30.513229999999993 L 59.74577000000001 30.513229999999993 C 59.74577000000001 46.657909999999994 51.436980000000005 59.74576999999999 41.187560000000005 59.74576999999999 L -41.18755 59.74576999999999 L -41.18755 59.74576999999999 C -51.43696 59.74576999999999 -59.745760000000004 46.65791999999999 -59.745760000000004 30.513229999999993 z" stroke-linecap="round" />
</g>
		<g transform="matrix(1.3717665809 0 0 0.7920918106 98.6134438566 -102.4864095539)" id="Donk2Krv6q2bDGsg6SE3H"  >
<path style="stroke: rgb(0,0,0); stroke-width: 12; stroke-dasharray: none; stroke-linecap: butt; stroke-dashoffset: 0; stroke-linejoin: miter; stroke-miterlimit: 4; fill: rgb(143,140,148); fill-rule: nonzero; opacity: 1;"  transform=" translate(0, 0)" d="M -59.74576 -38.11352 C -59.74576 -50.060680000000005 -54.153349999999996 -59.74577 -47.25476999999999 -59.74577 L 47.25477000000001 -59.74577 L 47.25477000000001 -59.74577 C 54.15335000000001 -59.74577 59.745760000000004 -50.06068 59.745760000000004 -38.11352 L 59.745760000000004 38.11351 L 59.745760000000004 38.11351 C 59.745760000000004 50.06067 54.15335 59.74576 47.25477000000001 59.74576 L -47.25476999999999 59.74576 L -47.25476999999999 59.74576 C -54.153349999999996 59.74576 -59.74575999999999 50.060669999999995 -59.74575999999999 38.11351 z" stroke-linecap="round" />
</g>
		<g transform="matrix(1.1897161639 0 0 -0.6646125507 86.259578209 110.2030178731)" id="keef6L5hMEDUPCxJKghP7"  >
<path style="stroke: rgb(0,0,0); stroke-width: 14; stroke-dasharray: none; stroke-linecap: butt; stroke-dashoffset: 0; stroke-linejoin: miter; stroke-miterlimit: 4; fill: rgb(143,140,148); fill-rule: nonzero; opacity: 1;"  transform=" translate(0, 0)" d="M -59.74576 -32.78797 C -59.74576 -47.67635 -53.003409999999995 -59.745760000000004 -44.686299999999996 -59.745760000000004 L 44.68630000000001 -59.745760000000004 L 44.68630000000001 -59.745760000000004 C 53.00341000000001 -59.745760000000004 59.74576000000001 -47.676350000000006 59.74576000000001 -32.78797 L 59.74576000000001 32.78797 L 59.74576000000001 32.78797 C 59.74576000000001 47.67635 53.00341000000001 59.745760000000004 44.68630000000001 59.745760000000004 L -44.686299999999996 59.745760000000004 L -44.686299999999996 59.745760000000004 C -53.003409999999995 59.745760000000004 -59.74576 47.676350000000006 -59.74576 32.78797 z" stroke-linecap="round" />
</g>
		<g transform="matrix(0.7802743592 0 0 0.573118462 62.4562982491 6.995894602)" id="T1k_WjH3Er6tKI0eAz39D"  >
<path style="stroke: rgb(0,0,0); stroke-width: 19; stroke-dasharray: none; stroke-linecap: butt; stroke-dashoffset: 0; stroke-linejoin: miter; stroke-miterlimit: 4; fill: rgb(143,140,148); fill-rule: nonzero; opacity: 1;"  transform=" translate(0, 0)" d="M -59.74576 -35.26203 C -59.74576 -48.784020000000005 -51.694269999999996 -59.745760000000004 -41.76224 -59.745760000000004 L 41.76225 -59.745760000000004 L 41.76225 -59.745760000000004 C 51.69427 -59.745760000000004 59.74577 -48.784020000000005 59.74577 -35.26203 L 59.74577 35.26203999999999 L 59.74577 35.26203999999999 C 59.74577 48.784029999999994 51.69428 59.74576999999999 41.76225 59.74576999999999 L -41.76224 59.74576999999999 L -41.76224 59.74576999999999 C -51.69426 59.74576999999999 -59.74576 48.784029999999994 -59.74576 35.26203999999999 z" stroke-linecap="round" />
</g>
		<g transform="matrix(0 -1.0075898518 0.5765406553 0 -63.0732542389 72.3480535813)" id="_s33rW_KJLsEZnYXsu7ip"  >
<path style="stroke: rgb(0,0,0); stroke-width: 14; stroke-dasharray: none; stroke-linecap: butt; stroke-dashoffset: 0; stroke-linejoin: miter; stroke-miterlimit: 4; fill: rgb(143,140,148); fill-rule: nonzero; opacity: 1;"  transform=" translate(0, 0)" d="M -59.74576 -34.77821 C -59.74576 -48.56741 -53.349529999999994 -59.745760000000004 -45.459379999999996 -59.745760000000004 L 45.45939 -59.745760000000004 L 45.45939 -59.745760000000004 C 53.34954 -59.745760000000004 59.74577 -48.56741 59.74577 -34.77821 L 59.74577 34.77821 L 59.74577 34.77821 C 59.74577 48.56741 53.34954 59.745760000000004 45.45939 59.745760000000004 L -45.459379999999996 59.745760000000004 L -45.459379999999996 59.745760000000004 C -53.349529999999994 59.745760000000004 -59.74576 48.56741 -59.74576 34.77821 z" stroke-linecap="round" />
</g>
</g>
</g>
<g transform="matrix(0.9891390758 0 0 1.0978276914 138.6673309267 386.9005147158)" id="c6XrXpu0qfwmldPUuHLLW"  >
<path style="stroke: rgb(175,175,175); stroke-width: 12; stroke-dasharray: none; stroke-linecap: butt; stroke-dashoffset: 0; stroke-linejoin: miter; stroke-miterlimit: 4; fill: rgb(219,218,218); fill-rule: nonzero; opacity: 1;"  transform=" translate(0, 0)" d="M 36.96289 -49.23716 C 50.26791 -49.23716 61.05376 -38.45131000000001 61.05376 -25.146290000000004 L 61.05376 25.146299999999993 C 61.05376 38.451319999999996 50.26791 49.23716999999999 36.96289 49.23716999999999 L -61.053749999999994 49.23716999999999 L -61.053749999999994 -49.23716 z" stroke-linecap="round" />
</g>
<g transform="matrix(0.8225472425 0 0 1 90.2305402635 249.1442160521)" id="Sh6KvTcpmz1rmYznsQSG7"  >
<path style="stroke: rgb(175,175,175); stroke-width: 12; stroke-dasharray: none; stroke-linecap: butt; stroke-dashoffset: 0; stroke-linejoin: miter; stroke-miterlimit: 4; fill: rgb(219,218,218); fill-rule: nonzero; opacity: 1;"  transform=" translate(-21.0805534453, -47.324125)" d="M 25.02639 0 C 34.48964 0 42.16111 7.67148 42.16111 17.13472 L 42.16111 77.51353 C 42.16111 86.97678 34.48963 94.64825 25.02639 94.64825 L 0 94.64825 L 0 0 z" stroke-linecap="round" />
</g>
<g transform="matrix(-0.680376526 0 0 -0.7366723425 547.76583298 225.3580350288)" id="2o9bWdUBJesLliJ2lZTSF"  >
<path style="stroke: rgb(175,175,175); stroke-width: 12; stroke-dasharray: none; stroke-linecap: butt; stroke-dashoffset: 0; stroke-linejoin: miter; stroke-miterlimit: 4; fill: rgb(219,218,218); fill-rule: nonzero; opacity: 1;"  transform=" translate(-21.080555, -47.324125)" d="M 25.02639 0 C 34.48964 0 42.16111 7.67148 42.16111 17.13472 L 42.16111 77.51353 C 42.16111 86.97678 34.48963 94.64825 25.02639 94.64825 L 0 94.64825 L 0 0 z" stroke-linecap="round" />
</g>
<g transform="matrix(1 0 0 1 149.7168661049 147.7571929172)" id="Px1LryfPC1Qka5dvnn8NG"  >
<path style="stroke: rgb(175,175,175); stroke-width: 14; stroke-dasharray: none; stroke-linecap: butt; stroke-dashoffset: 0; stroke-linejoin: miter; stroke-miterlimit: 4; fill: rgb(219,218,218); fill-rule: nonzero; opacity: 1;"  transform=" translate(-30.211288327, -16.0636269461)" d="M 60.42258 14.21076 C 60.42258 24.10577 52.40109 32.127250000000004 42.50609 32.127250000000004 L 0 32.127250000000004 L 60.42258 7.105427357601002e-15 z" stroke-linecap="round" />
</g>
<g transform="matrix(1 0 0 1 253.7006051733 125.6935679172)" id="1N3EU6UtmVvlrQLWUD-Gf"  >
<path style="stroke: rgb(175,175,175); stroke-width: 14; stroke-dasharray: none; stroke-linecap: butt; stroke-dashoffset: 0; stroke-linejoin: miter; stroke-miterlimit: 4; fill: rgb(219,218,218); fill-rule: nonzero; opacity: 1;"  transform=" translate(-39.707785, -54.1174589221)" d="M 79.41557 90.31843 C 79.41557 100.21344 71.39408 108.23492 61.499080000000006 108.23492 L 17.916490000000003 108.23492 C 8.021480000000004 108.23492 3.552713678800501e-15 100.21343 3.552713678800501e-15 90.31843 L 3.552713678800501e-15 42.22601000000001 L 79.41557 7.105427357601002e-15 z" stroke-linecap="round" />
</g>
<g transform="matrix(1.0850615697 0 0 1.0850615697 394.4264491853 101.6210575048)" id="clLRbNJ0AZF7Nf1cARUTF"  >
<path style="stroke: rgb(175,175,175); stroke-width: 12; stroke-dasharray: none; stroke-linecap: butt; stroke-dashoffset: 0; stroke-linejoin: miter; stroke-miterlimit: 4; fill: rgb(219,218,218); fill-rule: nonzero; opacity: 1;"  transform=" translate(-52.4301042475, -29.062481353)" d="M 24.09087 58.12496 C 10.785849999999998 58.12496 0 47.339110000000005 0 34.034090000000006 L 0 7.105427357601002e-15 L 104.86021 58.12496000000001 z" stroke-linecap="round" />
</g>
<g transform="matrix(1 0 0 1 524.3301969142 321.2596253829)" id="1EV44w-vbV3dPAVkZaCj2"  >
<path style="stroke: rgb(175,175,175); stroke-width: 14; stroke-dasharray: none; stroke-linecap: butt; stroke-dashoffset: 0; stroke-linejoin: miter; stroke-miterlimit: 4; fill: rgb(219,218,218); fill-rule: nonzero; opacity: 1;"  transform=" translate(-38.8606123084, -39.707785)" d="M 0 17.91649 C 0 8.02148 8.02149 0 17.91649 0 L 77.72122 0 L 77.72122 79.41557 L 17.916490000000003 79.41557 C 13.164740000000002 79.41557 8.607610000000003 77.52794 5.247620000000003 74.16795 C 1.8876200000000032 70.80796000000001 2.6645352591003757e-15 66.25083000000001 2.6645352591003757e-15 61.499080000000006 z" stroke-linecap="round" />
</g>
<g transform="matrix(1 0 0 1 540.104280752 422.1190306425)" id="Rd5PgmCzn2QUMS_WajdP1"  >
<path style="stroke: rgb(175,175,175); stroke-width: 14; stroke-dasharray: none; stroke-linecap: butt; stroke-dashoffset: 0; stroke-linejoin: miter; stroke-miterlimit: 4; fill: rgb(219,218,218); fill-rule: nonzero; opacity: 1;"  transform=" translate(-24.303, -39.707785)" d="M 0 17.91649 C 0 8.02148 8.02149 0 17.91649 0 L 48.605999999999995 0 L 48.605999999999995 66.18602 L 23.724839999999993 79.41557 L 17.916489999999992 79.41557 C 13.164739999999991 79.41557 8.607609999999992 77.52794 5.247619999999992 74.16795 C 1.8876199999999925 70.80796000000001 -7.993605777301127e-15 66.25083000000001 -7.993605777301127e-15 61.499080000000006 z" stroke-linecap="round" />
</g>
<g transform="matrix(1 0 0 1 378.9277564562 534.3902683801)" id="xAf1-n8EIud14isYS7lFs"  >
<path style="stroke: rgb(175,175,175); stroke-width: 12; stroke-dasharray: none; stroke-linecap: butt; stroke-dashoffset: 0; stroke-linejoin: miter; stroke-miterlimit: 4; fill: rgb(219,218,218); fill-rule: nonzero; opacity: 1;"  transform=" translate(-47.324125, -39.1570271439)" d="M 77.51353 0 C 86.97678 0 94.64825 7.67148 94.64825 17.13472 L 94.64825 32.15102 L 0 78.31406000000001 L 0 17.134730000000012 C 0 7.671480000000011 7.67148 0.000010000000010279564 17.13472 0.000010000000010279564 z" stroke-linecap="round" />
</g>
<g transform="matrix(1 0 0 1 220.3455221036 521.9152099692)" id="cYwdYBilWk2Ag1yrv1pKm"  >
<path style="stroke: rgb(175,175,175); stroke-width: 12; stroke-dasharray: none; stroke-linecap: butt; stroke-dashoffset: 0; stroke-linejoin: miter; stroke-miterlimit: 4; fill: rgb(219,218,218); fill-rule: nonzero; opacity: 1;"  transform=" translate(-67.2741131619, -37.4174692339)" d="M 3.52421 0 L 110.45736 0 C 123.76238 0 134.54823 10.78585 134.54823 24.09087 L 134.54823 74.38346 C 134.54823 74.53428 134.54684 74.68478 134.54407999999998 74.83494 L -2.842170943040401e-14 0.2559400000000096 C 1.1503299999999717 0.08732000000000961 2.3270699999999716 9.603429163007604e-15 3.5242099999999716 9.603429163007604e-15 z" stroke-linecap="round" />
</g>
</svg>